HIERARCHY
ROOT Pelvis
{
	OFFSET 0.000000 0.000000 0.000000
	CHANNELS 6 Xposition Yposition Zposition Xrotation Yrotation Zrotation
	JOINT LeftUpLeg_virtual
	{
		OFFSET 0.000000 0.000000 0.000000
		CHANNELS 3 Xrotation Yrotation Zrotation
		JOINT LeftUpLeg
		{
			OFFSET 18.735201 -5.666702 -4.541200
			CHANNELS 3 Xrotation Yrotation Zrotation
			JOINT LeftLeg
			{
				OFFSET -0.021200 -31.938179 0.493100
				CHANNELS 3 Xrotation Yrotation Zrotation
				JOINT LeftFoot
				{
					OFFSET 0.021200 -31.938179 -4.336299
					CHANNELS 3 Xrotation Yrotation Zrotation
					JOINT LeftToeBase
					{
						OFFSET 0.943001 -26.722000 15.023500
						CHANNELS 3 Xrotation Yrotation Zrotation
						End Site
						{
							OFFSET 0 0 0
						}
					}
				}
			}
		}
	}
	JOINT RightUpLeg_virtual
	{
		OFFSET 0.000000 0.000000 0.000000
		CHANNELS 3 Xrotation Yrotation Zrotation
		JOINT RightUpLeg
		{
			OFFSET -18.735201 -5.666702 -4.541200
			CHANNELS 3 Xrotation Yrotation Zrotation
			JOINT RightLeg
			{
				OFFSET 0.018946 -31.938133 0.493100
				CHANNELS 3 Xrotation Yrotation Zrotation
				JOINT RightFoot
				{
					OFFSET -0.018946 -31.938126 -4.336299
					CHANNELS 3 Xrotation Yrotation Zrotation
					JOINT RightToeBase
					{
						OFFSET -0.943001 -26.722004 15.023500
						CHANNELS 3 Xrotation Yrotation Zrotation
						End Site
						{
							OFFSET 0 0 0
						}
					}
				}
			}
		}
	}
	JOINT Hips_virtual
	{
		OFFSET 0.000000 0.000000 0.000000
		CHANNELS 3 Xrotation Yrotation Zrotation
		JOINT Hips
		{
			OFFSET -0.000000 -0.000000 -0.000000
			CHANNELS 3 Xrotation Yrotation Zrotation
			JOINT Spine
			{
				OFFSET 0.000000 10.199997 -0.299500
				CHANNELS 3 Xrotation Yrotation Zrotation
				JOINT Spine1
				{
					OFFSET 0.000000 11.900002 -1.516600
					CHANNELS 3 Xrotation Yrotation Zrotation
					JOINT Spine2
					{
						OFFSET 0.000000 13.600006 -2.842500
						CHANNELS 3 Xrotation Yrotation Zrotation
						JOINT Neck_virtual
						{
							OFFSET 0.000000 0.000000 0.000000
							CHANNELS 3 Xrotation Yrotation Zrotation
							JOINT Neck
							{
								OFFSET 0.000000 9.624100 -2.890100
								CHANNELS 3 Xrotation Yrotation Zrotation
								JOINT Head
								{
									OFFSET 0.000000 14.068802 -1.351900
									CHANNELS 3 Xrotation Yrotation Zrotation
									End Site
									{
										OFFSET 0 0 0
									}
								}
							}
						}
						JOINT LeftShoulder_virtual
						{
							OFFSET 0.000000 0.000000 0.000000
							CHANNELS 3 Xrotation Yrotation Zrotation
							JOINT LeftShoulder
							{
								OFFSET 15.263000 10.923401 -0.547700
								CHANNELS 3 Xrotation Yrotation Zrotation
								JOINT LeftArm
								{
									OFFSET 25.438599 -2.830597 -13.032500
									CHANNELS 3 Xrotation Yrotation Zrotation
									JOINT LeftForeArm
									{
										OFFSET 29.960503 0.000000 0.000000
										CHANNELS 3 Xrotation Yrotation Zrotation
										JOINT LeftHand
										{
											OFFSET 27.849251 0.000000 0.000000
											CHANNELS 3 Xrotation Yrotation Zrotation
											End Site
											{
												OFFSET 0 0 0
											}
										}
									}
								}
							}
						}
						JOINT RightShoulder_virtual
						{
							OFFSET 0.000000 0.000000 0.000000
							CHANNELS 3 Xrotation Yrotation Zrotation
							JOINT RightShoulder
							{
								OFFSET -15.263000 10.923401 -0.547700
								CHANNELS 3 Xrotation Yrotation Zrotation
								JOINT RightArm
								{
									OFFSET -25.438599 -2.830597 -13.032500
									CHANNELS 3 Xrotation Yrotation Zrotation
									JOINT RightForeArm
									{
										OFFSET -29.960503 0.000000 0.000000
										CHANNELS 3 Xrotation Yrotation Zrotation
										JOINT RightHand
										{
											OFFSET -27.849251 0.000000 0.000000
											CHANNELS 3 Xrotation Yrotation Zrotation
											End Site
											{
												OFFSET 0 0 0
											}
										}
									}
								}
							}
						}
					}
				}
			}
		}
	}
}
MOTION
Frames: 6
Frame Time: 0.03333333
10.586921 95.333832 -0.521780 0.000000 0.000000 0.000000 10.836167 -24.121885 -4.523412 -25.316880 7.472089 7.928940 30.752363 13.826470 -0.089262 -17.802743 13.561585 2.615381 0.000000 0.000000 0.000000 9.064671 -9.621525 2.856471 -19.047902 -8.649023 -13.084797 24.736223 0.758926 -0.224876 -22.758119 -3.618227 10.598913 0.000000 0.000000 0.000000 -0.236141 -10.571863 0.585351 1.411315 -2.270379 -3.685471 5.059592 0.251953 -2.688358 0.876605 0.307698 -1.240465 0.000000 0.000000 0.000000 2.059746 -0.069979 0.271093 -1.594126 -0.116755 0.221146 0.000000 0.000000 0.000000 2.416658 0.381188 -0.468947 1.801874 -4.379553 -9.069085 -4.602268 -1.491352 -54.265112 -0.929885 -41.610445 -4.040158 0.000000 0.000000 0.000000 3.383077 -0.376785 0.702128 2.266145 -0.290329 13.723308 4.387509 -6.754145 54.017142 1.452949 38.110021 4.404346 0.000000 0.000000 0.000000 
10.805897 95.315697 -0.437378 0.000000 0.000000 0.000000 10.863139 -24.365711 -4.591372 -25.240032 7.439135 7.801290 30.741572 13.984891 -0.093538 -17.844501 13.706724 2.698671 0.000000 0.000000 0.000000 9.160909 -9.689083 2.885419 -18.922952 -8.688982 -13.066446 24.574677 0.779850 -0.286656 -22.887503 -3.572901 10.499845 0.000000 0.000000 0.000000 -0.229077 -10.752465 0.569093 1.628688 -2.454354 -3.812314 4.958363 0.099136 -2.745033 0.839271 0.231834 -1.280941 0.000000 0.000000 0.000000 2.019295 -0.098554 0.286342 -1.614557 -0.117422 0.233345 0.000000 0.000000 0.000000 2.412778 0.322329 -0.460917 1.785398 -4.469940 -9.048123 -4.637773 -1.989307 -54.417326 -0.892261 -42.229400 -4.067506 0.000000 0.000000 0.000000 3.384681 -0.427157 0.739730 2.275143 -0.449380 13.865108 4.418679 -6.510361 54.136284 1.455028 38.683070 4.472886 0.000000 0.000000 0.000000 
11.010608 95.297562 -0.355939 0.000000 0.000000 0.000000 10.887895 -24.603581 -4.662121 -25.165970 7.408055 7.672251 30.744614 14.132476 -0.105506 -17.873717 13.845480 2.765283 0.000000 0.000000 0.000000 9.259751 -9.753459 2.918464 -18.793028 -8.729333 -13.042706 24.407719 0.786751 -0.348979 -23.018455 -3.540650 10.391328 0.000000 0.000000 0.000000 -0.221136 -10.926022 0.551736 1.845451 -2.628239 -3.947008 4.858784 -0.058524 -2.808908 0.803111 0.153768 -1.325125 0.000000 0.000000 0.000000 1.979566 -0.128988 0.300745 -1.634836 -0.119082 0.245636 0.000000 0.000000 0.000000 2.410523 0.261431 -0.453521 1.769225 -4.566733 -9.027848 -4.665654 -2.505863 -54.572074 -0.848167 -42.863621 -4.092275 0.000000 0.000000 0.000000 3.387559 -0.478840 0.779757 2.285267 -0.612475 14.015506 4.437941 -6.263179 54.249976 1.450356 39.266204 4.545482 0.000000 0.000000 0.000000 
11.200656 95.279343 -0.278262 0.000000 0.000000 0.000000 10.910405 -24.834488 -4.735157 -25.095076 7.378952 7.542644 30.763732 14.268678 -0.125509 -17.888552 13.977555 2.814668 0.000000 0.000000 0.000000 9.362011 -9.813351 2.955036 -18.656494 -8.769757 -13.013855 24.234326 0.779574 -0.410395 -23.151505 -3.522373 10.275648 0.000000 0.000000 0.000000 -0.212323 -11.092609 0.533239 2.061334 -2.793964 -4.089073 4.761455 -0.220844 -2.881038 0.768389 0.073697 -1.373551 0.000000 0.000000 0.000000 1.940804 -0.161454 0.313967 -1.654905 -0.121852 0.257916 0.000000 0.000000 0.000000 2.409460 0.198817 -0.447251 1.752975 -4.669001 -9.009335 -4.687223 -3.039256 -54.729455 -0.798361 -43.511392 -4.114882 0.000000 0.000000 0.000000 3.391306 -0.531732 0.821595 2.296247 -0.779596 14.172008 4.446377 -6.014774 54.357149 1.438677 39.856421 4.622374 0.000000 0.000000 0.000000 
11.375808 95.260796 -0.205310 0.000000 0.000000 0.000000 10.930750 -25.057669 -4.809457 -25.027654 7.351725 7.413761 30.799444 14.393271 -0.152937 -17.888499 14.102510 2.847722 0.000000 0.000000 0.000000 9.468461 -9.866686 2.994677 -18.511828 -8.809745 -12.979987 24.054459 0.758630 -0.469654 -23.286523 -3.518460 10.155029 0.000000 0.000000 0.000000 -0.202631 -11.252359 0.513626 2.275875 -2.954168 -4.237543 4.667041 -0.387564 -2.962286 0.735388 -0.008148 -1.426643 0.000000 0.000000 0.000000 1.903266 -0.196110 0.325795 -1.674703 -0.125864 0.270155 0.000000 0.000000 0.000000 2.409132 0.134762 -0.442545 1.736267 -4.776254 -8.993333 -4.704051 -3.587205 -54.889524 -0.743837 -44.170642 -4.135808 0.000000 0.000000 0.000000 3.395524 -0.585713 0.864463 2.307817 -0.950760 14.331520 4.445757 -5.767048 54.456402 1.420229 40.450528 4.703458 0.000000 0.000000 0.000000 
11.536002 95.241539 -0.138102 0.000000 0.000000 0.000000 10.949211 -25.272345 -4.883674 -24.963747 7.326182 7.287170 30.850175 14.506355 -0.186187 -17.874607 14.219768 2.866809 0.000000 0.000000 0.000000 9.579699 -9.911022 3.037024 -18.357814 -8.848686 -12.941080 23.868798 0.724455 -0.525711 -23.422986 -3.528953 10.031549 0.000000 0.000000 0.000000 -0.192080 -11.405408 0.492960 2.488230 -3.111916 -4.391106 4.576240 -0.558343 -3.053330 0.704389 -0.091505 -1.484727 0.000000 0.000000 0.000000 1.867121 -0.233078 0.336131 -1.694203 -0.131266 0.282396 0.000000 0.000000 0.000000 2.409070 0.069481 -0.439744 1.718727 -4.888538 -8.980121 -4.718068 -4.146903 -55.052001 -0.685789 -44.838846 -4.155474 0.000000 0.000000 0.000000 3.399881 -0.640615 0.907455 2.319780 -1.125901 14.490552 4.438554 -5.521708 54.545880 1.395813 41.044895 4.788145 0.000000 0.000000 0.000000 
